{
  "accessors": [
    {
      "bufferView": 2,
      "componentType": 5126,
      "count": 26223,
      "max": [
        2.063183546066284,
        5.570804119110107,
        2.786438465118408
      ],
      "min": [
        -2.05195689201355,
        -4.6609978675842285,
        -0.0029248103965073824
      ],
      "type": "VEC3"
    },
    {
      "bufferView": 2,
      "byteOffset": 314676,
      "componentType": 5126,
      "count": 26223,
      "max": [
        1.0,
        1.0,
        1.0
      ],
      "min": [
        -1.0,
        -1.0,
        -1.0
      ],
      "type": "VEC3"
    },
    {
      "bufferView": 3,
      "componentType": 5126,
      "count": 26223,
      "max": [
        1.0,
        1.0,
        1.0,
        1.0
      ],
      "min": [
        -1.0,
        -1.0,
        -1.0,
        -1.0
      ],
      "type": "VEC4"
    },
    {
      "bufferView": 1,
      "componentType": 5126,
      "count": 26223,
      "max": [
        0.9833505749702454,
        0.999755859375
      ],
      "min": [
        0.000244140625,
        0.000244140625
      ],
      "type": "VEC2"
    },
    {
      "bufferView": 1,
      "byteOffset": 209784,
      "componentType": 5126,
      "count": 26223,
      "max": [
        0.9833505749702454,
        0.999755859375
      ],
      "min": [
        0.000244140625,
        0.000244140625
      ],
      "type": "VEC2"
    },
    {
      "bufferView": 0,
      "componentType": 5125,
      "count": 82323,
      "type": "SCALAR"
    },
    {
      "bufferView": 2,
      "byteOffset": 629352,
      "componentType": 5126,
      "count": 37796,
      "max": [
        6.136865139007568,
        4.341372013092041,
        2.1901628971099854
      ],
      "min": [
        -6.136865139007568,
        -5.207426071166992,
        0.39320361614227295
      ],
      "type": "VEC3"
    },
    {
      "bufferView": 2,
      "byteOffset": 1082904,
      "componentType": 5126,
      "count": 37796,
      "max": [
        0.9991366863250732,
        0.9999708533287048,
        0.9999045729637146
      ],
      "min": [
        -0.9991366863250732,
        -0.9999708533287048,
        -0.9999202489852905
      ],
      "type": "VEC3"
    },
    {
      "bufferView": 3,
      "byteOffset": 419568,
      "componentType": 5126,
      "count": 37796,
      "max": [
        0.9999833106994629,
        0.9999614953994751,
        0.99988853931427,
        1.0
      ],
      "min": [
        -0.9999833106994629,
        -0.999964714050293,
        -0.9998888373374939,
        -1.0
      ],
      "type": "VEC4"
    },
    {
      "bufferView": 1,
      "byteOffset": 419568,
      "componentType": 5126,
      "count": 37796,
      "max": [
        0.999755859375,
        0.9935137033462524
      ],
      "min": [
        0.000667874061036855,
        0.0006678827339783311
      ],
      "type": "VEC2"
    },
    {
      "bufferView": 1,
      "byteOffset": 721936,
      "componentType": 5126,
      "count": 37796,
      "max": [
        0.999755859375,
        0.9935137033462524
      ],
      "min": [
        0.000667874061036855,
        0.0006678827339783311
      ],
      "type": "VEC2"
    },
    {
      "bufferView": 0,
      "byteOffset": 329292,
      "componentType": 5125,
      "count": 135708,
      "type": "SCALAR"
    }
  ],
  "asset": {
    "extras": {
      "author": "Kerem Kavalci (https://sketchfab.com/Keremz)",
      "license": "SKETCHFAB Standard (https://sketchfab.com/licenses)",
      "source": "https://sketchfab.com/3d-models/light-fighter-spaceship-free-51616ef53af84fe595c5603cd3e0f3e1",
      "title": "LIGHT FIGHTER SPACESHIP - FREE -"
    },
    "generator": "Sketchfab-16.12.0",
    "version": "2.0"
  },
  "bufferViews": [
    {
      "buffer": 0,
      "byteLength": 872124,
      "name": "floatBufferViews",
      "target": 34963
    },
    {
      "buffer": 0,
      "byteLength": 1024304,
      "byteOffset": 872124,
      "byteStride": 8,
      "name": "floatBufferViews",
      "target": 34962
    },
    {
      "buffer": 0,
      "byteLength": 1536456,
      "byteOffset": 1896428,
      "byteStride": 12,
      "name": "floatBufferViews",
      "target": 34962
    },
    {
      "buffer": 0,
      "byteLength": 1024304,
      "byteOffset": 3432884,
      "byteStride": 16,
      "name": "floatBufferViews",
      "target": 34962
    }
  ],
  "buffers": [
    {
      "byteLength": 4457188,
      "uri": "scene.bin"
    }
  ],
  "extensionsUsed": [
    "KHR_materials_emissive_strength"
  ],
  "images": [
    {
      "uri": "textures/BASE_baseColor.png"
    },
    {
      "uri": "textures/BASE_metallicRoughness.png"
    },
    {
      "uri": "textures/BASE_emissive.png"
    },
    {
      "uri": "textures/BASE_normal.png"
    },
    {
      "uri": "textures/WINGS_baseColor.png"
    },
    {
      "uri": "textures/WINGS_metallicRoughness.png"
    },
    {
      "uri": "textures/WINGS_emissive.png"
    },
    {
      "uri": "textures/WINGS_normal.png"
    }
  ],
  "materials": [
    {
      "doubleSided": true,
      "emissiveFactor": [
        1.0,
        1.0,
        1.0
      ],
      "emissiveTexture": {
        "index": 2
      },
      "extensions": {
        "KHR_materials_emissive_strength": {
          "emissiveStrength": 1.9991562616092735
        }
      },
      "name": "BASE",
      "normalTexture": {
        "index": 3
      },
      "occlusionTexture": {
        "index": 1
      },
      "pbrMetallicRoughness": {
        "baseColorTexture": {
          "index": 0
        },
        "metallicRoughnessTexture": {
          "index": 1
        },
        "roughnessFactor": 0.8484608070924397
      }
    },
    {
      "doubleSided": true,
      "emissiveFactor": [
        1.0,
        1.0,
        1.0
      ],
      "emissiveTexture": {
        "index": 6
      },
      "extensions": {
        "KHR_materials_emissive_strength": {
          "emissiveStrength": 7.162331488442673
        }
      },
      "name": "WINGS",
      "normalTexture": {
        "index": 7
      },
      "occlusionTexture": {
        "index": 5
      },
      "pbrMetallicRoughness": {
        "baseColorTexture": {
          "index": 4
        },
        "metallicRoughnessTexture": {
          "index": 5
        },
        "roughnessFactor": 0.7351228143082918
      }
    }
  ],
  "meshes": [
    {
      "name": "Cube.010_BASE_0",
      "primitives": [
        {
          "attributes": {
            "NORMAL": 1,
            "POSITION": 0,
            "TANGENT": 2,
            "TEXCOORD_0": 3,
            "TEXCOORD_1": 4
          },
          "indices": 5,
          "material": 0,
          "mode": 4
        }
      ]
    },
    {
      "name": "Cube.003_WINGS_0",
      "primitives": [
        {
          "attributes": {
            "NORMAL": 7,
            "POSITION": 6,
            "TANGENT": 8,
            "TEXCOORD_0": 9,
            "TEXCOORD_1": 10
          },
          "indices": 11,
          "material": 1,
          "mode": 4
        }
      ]
    }
  ],
  "nodes": [
    {
      "children": [
        1
      ],
      "matrix": [
        1.0,
        0.0,
        0.0,
        0.0,
        0.0,
        2.220446049250313e-16,
        -1.0,
        0.0,
        0.0,
        1.0,
        2.220446049250313e-16,
        0.0,
        0.0,
        0.0,
        0.0,
        1.0
      ],
      "name": "Sketchfab_model"
    },
    {
      "children": [
        2
      ],
      "matrix": [
        0.009999999776482582,
        0.0,
        0.0,
        0.0,
        0.0,
        0.0,
        0.009999999776482582,
        0.0,
        0.0,
        -0.009999999776482582,
        0.0,
        0.0,
        0.0,
        0.0,
        0.0,
        1.0
      ],
      "name": "3c665eb1d6664743b42a5a98d3bc7431.fbx"
    },
    {
      "children": [
        3
      ],
      "name": "RootNode"
    },
    {
      "children": [
        4,
        5
      ],
      "matrix": [
        100.0,
        0.0,
        0.0,
        0.0,
        0.0,
        -1.629206793918314e-05,
        -99.99999999999868,
        0.0,
        0.0,
        99.99999999999868,
        -1.629206793918314e-05,
        0.0,
        0.0,
        0.0,
        0.0,
        1.0
      ],
      "name": "Cube.010"
    },
    {
      "mesh": 0,
      "name": "Cube.010_BASE_0"
    },
    {
      "children": [
        6
      ],
      "matrix": [
        1.0,
        0.0,
        0.0,
        0.0,
        0.0,
        1.0,
        -2.646977960169688e-23,
        0.0,
        0.0,
        2.646977960169688e-23,
        1.0,
        0.0,
        0.0,
        0.0,
        0.0,
        1.0
      ],
      "name": "Cube.003"
    },
    {
      "mesh": 1,
      "name": "Cube.003_WINGS_0"
    }
  ],
  "samplers": [
    {
      "magFilter": 9729,
      "minFilter": 9987,
      "wrapS": 10497,
      "wrapT": 10497
    }
  ],
  "scene": 0,
  "scenes": [
    {
      "name": "Sketchfab_Scene",
      "nodes": [
        0
      ]
    }
  ],
  "textures": [
    {
      "sampler": 0,
      "source": 0
    },
    {
      "sampler": 0,
      "source": 1
    },
    {
      "sampler": 0,
      "source": 2
    },
    {
      "sampler": 0,
      "source": 3
    },
    {
      "sampler": 0,
      "source": 4
    },
    {
      "sampler": 0,
      "source": 5
    },
    {
      "sampler": 0,
      "source": 6
    },
    {
      "sampler": 0,
      "source": 7
    }
  ]
}
